<svg version="1.1" viewBox="0.0 0.0 661.5196850393701 661.9238845144357" fill="none" stroke="none" stroke-linecap="square" stroke-miterlimit="10" xmlns:xlink="http://www.w3.org/1999/xlink" xmlns="http://www.w3.org/2000/svg"><clipPath id="p.0"><path d="m0 0l661.5197 0l0 661.9239l-661.5197 0l0 -661.9239z" clip-rule="nonzero"/></clipPath><g clip-path="url(#p.0)"><path fill="#000000" fill-opacity="0.0" d="m0 0l661.5197 0l0 661.9239l-661.5197 0z" fill-rule="evenodd"/><path fill="#38761d" d="m0 110.059944l0 0c0 -60.784428 49.275517 -110.059944 110.059944 -110.059944l440.22656 0l0 0c29.189697 0 57.1839 11.595568 77.82416 32.235813c20.640259 20.64024 32.23578 48.63442 32.23578 77.82413l0 440.22656c0 60.784424 -49.275513 110.05994 -110.05994 110.05994l-440.22656 0c-60.784428 0 -110.059944 -49.275513 -110.059944 -110.05994z" fill-rule="evenodd"/><path stroke="#38761d" stroke-width="1.0" stroke-linejoin="round" stroke-linecap="butt" d="m0 110.059944l0 0c0 -60.784428 49.275517 -110.059944 110.059944 -110.059944l440.22656 0l0 0c29.189697 0 57.1839 11.595568 77.82416 32.235813c20.640259 20.64024 32.23578 48.63442 32.23578 77.82413l0 440.22656c0 60.784424 -49.275513 110.05994 -110.05994 110.05994l-440.22656 0c-60.784428 0 -110.059944 -49.275513 -110.059944 -110.05994z" fill-rule="evenodd"/><path fill="#38761d" d="m25.952755 127.36161l0 0c0 -56.00656 45.402294 -101.40886 101.40886 -101.40886l405.62326 0l0 0c26.895264 0 52.689026 10.684116 71.70685 29.701965c19.017883 19.017849 29.701965 44.81159 29.701965 71.706894l0 405.62326c0 56.00653 -45.402283 101.40881 -101.40881 101.40881l-405.62326 0c-56.00656 0 -101.40886 -45.402283 -101.40886 -101.40881z" fill-rule="evenodd"/><path stroke="#ffffff" stroke-width="12.0" stroke-linejoin="round" stroke-linecap="butt" d="m25.952755 127.36161l0 0c0 -56.00656 45.402294 -101.40886 101.40886 -101.40886l405.62326 0l0 0c26.895264 0 52.689026 10.684116 71.70685 29.701965c19.017883 19.017849 29.701965 44.81159 29.701965 71.706894l0 405.62326c0 56.00653 -45.402283 101.40881 -101.40881 101.40881l-405.62326 0c-56.00656 0 -101.40886 -45.402283 -101.40886 -101.40881z" fill-rule="evenodd"/><path fill="#dc3c3c" d="m480.89764 306.42783l-150.72443 251.37009l-150.7244 -251.37009z" fill-rule="evenodd"/><path stroke="#ffffff" stroke-width="1.0" stroke-linejoin="round" stroke-linecap="butt" d="m480.89764 306.42783l-150.72443 251.37009l-150.7244 -251.37009z" fill-rule="evenodd"/><path fill="#dc3c3c" d="m150.0315 258.95013l0 0c0 -99.48953 80.65221 -180.14174 180.14172 -180.14174l0 0c47.77658 0 93.59631 18.979164 127.379456 52.7623c33.78311 33.783127 52.7623 79.602875 52.7623 127.37944l0 0c0 99.48953 -80.65222 180.14172 -180.14175 180.14172l0 0c-99.48952 0 -180.14172 -80.65219 -180.14172 -180.14172z" fill-rule="evenodd"/><path stroke="#ffffff" stroke-width="1.0" stroke-linejoin="round" stroke-linecap="butt" d="m150.0315 258.95013l0 0c0 -99.48953 80.65221 -180.14174 180.14172 -180.14174l0 0c47.77658 0 93.59631 18.979164 127.379456 52.7623c33.78311 33.783127 52.7623 79.602875 52.7623 127.37944l0 0c0 99.48953 -80.65222 180.14172 -180.14175 180.14172l0 0c-99.48952 0 -180.14172 -80.65219 -180.14172 -180.14172z" fill-rule="evenodd"/><path fill="#38761d" d="m272.11023 258.95013l0 0c0 -32.067307 25.995697 -58.06299 58.06299 -58.06299l0 0c15.399261 0 30.167816 6.117325 41.056732 17.006256c10.888947 10.888916 17.006256 25.65747 17.006256 41.056732l0 0c0 32.06729 -25.995667 58.06299 -58.06299 58.06299l0 0c-32.06729 0 -58.06299 -25.995697 -58.06299 -58.06299z" fill-rule="evenodd"/><path stroke="#ffffff" stroke-width="1.0" stroke-linejoin="round" stroke-linecap="butt" d="m272.11023 258.95013l0 0c0 -32.067307 25.995697 -58.06299 58.06299 -58.06299l0 0c15.399261 0 30.167816 6.117325 41.056732 17.006256c10.888947 10.888916 17.006256 25.65747 17.006256 41.056732l0 0c0 32.06729 -25.995667 58.06299 -58.06299 58.06299l0 0c-32.06729 0 -58.06299 -25.995697 -58.06299 -58.06299z" fill-rule="evenodd"/></g></svg>